<svg xmlns="http://www.w3.org/2000/svg" x="0px" y="0px"
     width="48" height="48"
     viewBox="0 0 252 252"
     style=";fill:#000000;"
     class="icon icons8-folder"><g fill="none" fill-rule="nonzero" stroke="none" stroke-width="1" stroke-linecap="butt" stroke-linejoin="miter" stroke-miterlimit="10" stroke-dasharray="" stroke-dashoffset="0" font-family="none" font-weight="none" font-size="none" text-anchor="none" style="mix-blend-mode: normal"><path d="M0,252v-252h252v252z" fill="none"></path><g><g id="surface1"><path d="M210,63h-94.5l-21,-21h-52.5c-11.5459,0 -21,9.4541 -21,21v42h210v-21c0,-11.5459 -9.4541,-21 -21,-21z" fill="#bdc3c7"></path><path d="M210,63h-168c-11.5459,0 -21,9.4541 -21,21v105c0,11.5459 9.4541,21 21,21h168c11.5459,0 21,-9.4541 21,-21v-105c0,-11.5459 -9.4541,-21 -21,-21z" fill="#ecf0f1"></path></g></g></g></svg>